<svg enable-background="new 0 0 155.2 60" viewBox="0 0 155.2 60" xmlns="http://www.w3.org/2000/svg" xmlns:xlink="http://www.w3.org/1999/xlink"><linearGradient id="a" gradientTransform="matrix(1 0 0 -1 0 -6205.0688)" gradientUnits="userSpaceOnUse" x1="70.15" x2="82.0104" y1="-6224.5195" y2="-6212.6597"><stop offset="0" stop-color="#7e5200"/><stop offset=".0955" stop-color="#946d1e"/><stop offset=".2674" stop-color="#b8994e"/><stop offset=".3987" stop-color="#ceb46c"/><stop offset=".473" stop-color="#d6be77"/><stop offset=".6248" stop-color="#d4bb75"/><stop offset=".7172" stop-color="#cdb36d"/><stop offset=".7936" stop-color="#c1a55f"/><stop offset=".8613" stop-color="#b1904c"/><stop offset=".9233" stop-color="#9b7633"/><stop offset=".9804" stop-color="#815615"/><stop offset=".9865" stop-color="#7e5211"/></linearGradient><radialGradient id="b" cx="3388.74" cy="-7035.6504" gradientTransform="matrix(-.7139 0 0 -.7116 2492.1389 -4986.354)" gradientUnits="userSpaceOnUse" r="20.7072"><stop offset="0" stop-color="#7e5200"/><stop offset=".1548" stop-color="#815503"/><stop offset=".2775" stop-color="#895f0c"/><stop offset=".3892" stop-color="#97701b"/><stop offset=".4944" stop-color="#aa8730"/><stop offset=".5941" stop-color="#c3a64b"/><stop offset=".6892" stop-color="#e1ca6b"/><stop offset=".9537" stop-color="#e1ca6b"/><stop offset=".9955" stop-color="#e1ca6b"/></radialGradient><linearGradient id="c" gradientTransform="matrix(-1 0 0 -1 -5209.0933 -6205.0688)" gradientUnits="userSpaceOnUse" x1="-5292.2915" x2="-5278.272" y1="-6211.6235" y2="-6225.6431"><stop offset=".009" stop-color="#593508"/><stop offset=".7114" stop-color="#5e3d1f"/><stop offset="1" stop-color="#61412a"/></linearGradient><radialGradient id="d" cx="-4179.9453" cy="-8962.1582" gradientTransform="matrix(.6676 -.6972 -.4851 -.4615 -1486.0123 -7043.8281)" gradientUnits="userSpaceOnUse" r="25.4083"><stop offset="0" stop-color="#fffbff"/><stop offset=".1613" stop-color="#fffba3"/><stop offset=".3188" stop-color="#efe38a"/><stop offset=".5402" stop-color="#d5ba60"/><stop offset=".7536" stop-color="#b39745"/><stop offset="1" stop-color="#876922"/></radialGradient><linearGradient id="e" gradientTransform="matrix(1 0 0 -1 0 -6205.0688)" gradientUnits="userSpaceOnUse" x1="71.7812" x2="79.3232" y1="-6225.3745" y2="-6225.3745"><stop offset="0" stop-color="#ad9a49"/><stop offset=".054" stop-color="#b29e4e"/><stop offset=".4133" stop-color="#ccb56c"/><stop offset=".6171" stop-color="#d6be77"/></linearGradient><linearGradient id="f" gradientTransform="matrix(1 0 0 -1 0 -6205.0688)" gradientUnits="userSpaceOnUse" x1="71.781" x2="74.2883" y1="-6218.6587" y2="-6218.6587"><stop offset="0" stop-color="#d6be77"/><stop offset=".6532" stop-color="#744b00"/><stop offset=".7793" stop-color="#8a5b02"/><stop offset=".8018" stop-color="#91640d"/><stop offset=".8408" stop-color="#a37c29"/><stop offset=".8912" stop-color="#c1a256"/><stop offset=".9234" stop-color="#d6be77"/></linearGradient><linearGradient id="g" gradientTransform="matrix(-1 0 0 -1 -6598.2769 -6205.0688)" gradientUnits="userSpaceOnUse" x1="-6677.7285" x2="-6675.2212" y1="-6218.6587" y2="-6218.6587"><stop offset=".2748" stop-color="#744b00"/><stop offset=".354" stop-color="#7b5309"/><stop offset=".4842" stop-color="#8e6922"/><stop offset=".6495" stop-color="#ad8d4a"/><stop offset=".8412" stop-color="#d7bf82"/><stop offset=".9234" stop-color="#ebd69c"/></linearGradient><g fill="#54534a"><path d="m23 59.9h-.7l-4-4.6v4.6h-.8v-6h.7l4 4.6v-4.6h.8z"/><path d="m29.9 54.7h-2.5v1.8h2.4v.8h-2.4v1.9h2.6v.8h-3.5v-6h3.4z"/><path d="m39.3 60h-.2l-2-4.9-2 4.9h-.1l-2.4-6h.9l1.7 4.1 1.7-4.1h.8l1.7 4.1 1.6-4.1h.9z"/><path d="m51.7 56.8v3.2h-.9v-3.2l-2.2-2.8h1l1.6 2.1 1.6-2.1h1z"/><path d="m62.2 56.9c0 1.7-1.3 3.1-3.3 3.1-1.9 0-3.2-1.4-3.2-3.1 0-1.6 1.2-3.1 3.2-3.1 2.1.1 3.3 1.5 3.3 3.1zm-5.5 0c0 1.4 1.1 2.3 2.3 2.3.6 0 1.3-.3 1.7-.7s.6-1.1.6-1.6c0-1-.8-2.2-2.3-2.2-1.6 0-2.3 1.2-2.3 2.2z"/><path d="m67 53.9c.3 0 .6 0 1 .2.6.3.9.9.9 1.5 0 .7-.4 1.2-1 1.5.5.4.9.9 1.3 1.7.3.4.4.6.8 1.2h-1c-.2-.3-1-1.6-1.2-1.9-.6-.8-.9-.8-1.3-.8h-.2v2.6h-.9v-6zm-.6.8v1.9h.3c.1 0 .6 0 .8-.1.4-.2.6-.5.6-.9 0-.3-.2-.7-.5-.8-.2-.1-.5-.1-1-.1z"/><path d="m74.9 56.8 3.2 3.2h-1.2l-3.1-3v3h-.8v-6h.9v2.7l2.5-2.7h1.1z"/><path d="m87.2 53.9c.4 0 .7 0 1 .1.6.2 1 .7 1 1.4 0 .5-.2 1-.9 1.3.9.2 1.4.8 1.4 1.5 0 1-.8 1.4-1.2 1.5s-.6.1-1.3.1h-1.7v-6h1.7zm-.7.8v1.8h.5c.2 0 .6 0 .8-.1s.5-.3.5-.8c0-.3-.2-.6-.4-.7s-.6-.1-.9-.1h-.5zm0 2.6v1.9h.9c.2 0 .7 0 .9-.1.4-.2.6-.5.6-.9 0-.3-.1-.6-.6-.8-.2-.1-.5-.1-1-.1z"/><path d="m98 59.9h-.9l-.8-1.8h-2.5l-.8 1.8h-.9l2.6-6h.6zm-2.1-2.5-1-2.2-.9 2.2z"/><path d="m102.4 53.9c.3 0 .6 0 1 .2.6.3.9.9.9 1.5 0 .7-.4 1.2-1 1.5.5.4.9.9 1.3 1.7.3.4.4.6.8 1.2h-1c-.2-.3-1-1.6-1.2-1.9-.6-.8-.9-.8-1.3-.8h-.2v2.6h-.9v-6zm-.7.8v1.9h.3c.1 0 .6 0 .8-.1.4-.2.6-.5.6-.9 0-.3-.2-.7-.5-.8-.2-.1-.5-.1-1-.1z"/><path d="m112.9 55.3c-.6-.4-1.3-.6-2.1-.6-1.4 0-2.4 1.1-2.4 2.3 0 1.1.8 2.3 2.4 2.3.8 0 1.5-.3 2.1-.7v.9c-.7.4-1.4.5-2.2.5-2.2 0-3.2-1.7-3.2-3.1 0-1.7 1.3-3.1 3.2-3.1.9 0 1.7.3 2.1.5v1z"/><path d="m117.1 59.1h2.7v.8h-3.6v-6h.9z"/><path d="m127.9 59.9h-.9l-.8-1.8h-2.5l-.8 1.8h-.9l2.6-6h.6zm-2-2.5-1-2.2-.9 2.2z"/><path d="m132.3 56.8v3.2h-.9v-3.2l-2.2-2.8h1l1.6 2.1 1.6-2.1h1z"/><path d="m90.9 47.3v-.3c-.2 0-.9 0-.9-.9v-9.3c0-.9.7-.8.9-.9v-.3h-3.3v.4c.2 0 .9 0 .9.9v9.3c0 .9-.7.8-.9.9v.3h3.3z"/><path d="m3.5 47.3v-.4c-.2 0-1 0-1-.9v-10.6c0-.9.8-.9 1-.9v-.4h-3.5v.4c.2 0 1 0 1 .9v10.6c0 .9-.8.9-1 .9v.4z"/><path d="m151.6 47.3v-1.9h-.3c0 .2 0 .9-.9.9h-2.9v-9.5c0-.9.7-.8.9-.9v-.3h-3.3v.4c.2 0 .9 0 .9.9v9.3c0 .9-.7.8-.9.9v.3h1.8 4.7z"/><path clip-rule="evenodd" d="m61.1 46.7c.9 0 2.9-.5 2.9-4.9 0-3.4-1.6-5.5-3.7-5.5-1.4 0-3.1 1-3.1 4.7 0 3.2 1.5 5.7 3.9 5.7m-.6.9c-3.5 0-4.9-3.3-4.9-6.1 0-2.6 1.4-6.1 5-6.1 3 0 4.9 2.2 4.9 5.8s-1.9 6.4-5 6.4" fill-rule="evenodd"/><path d="m100.4 35.7v.3c.2 0 .9 0 .9.9v7.8l-6-9h-2v.3c.2 0 .9 0 .9.9v9.3c0 .9-.7.8-.9.9v.3h2.9v-.4c-.2 0-.9 0-.9-.9v-7.7l6 8.9h1v-10.4c0-.9.7-.8.9-.9v-.3z"/><path d="m122.3 35.7v.3c.2 0 .9 0 .9.9v7.8l-6-9h-2v.3c.2 0 .9 0 .9.9v9.3c0 .9-.7.8-.9.9v.3h2.9v-.4c-.2 0-.9 0-.9-.9v-7.7l6 8.9h1v-10.4c0-.9.7-.8.9-.9v-.3z"/><path d="m33.2 47.3v-1.9h-.3c0 .2 0 .9-.9.9h-3.4v-4.5h2.8c.9 0 .8.7.9.9h.3v-2.7h-.3c0 .2-.1.8-.9.8h-2.8v-4.2h3.4c.9 0 .8.7.9.9h.3v-1.9h-7v.4c.2 0 .9 0 .9.9v9.3c0 .9-.7.8-.9.9v.3h7z"/><path d="m112.7 47.3v-1.9h-.3c0 .2 0 .9-.9.9h-3.4v-4.5h2.8c.9 0 .8.7.9.9h.3v-2.7h-.3c0 .2-.1.8-.9.8h-2.8v-4.2h3.4c.9 0 .8.7.9.9h.3v-1.9h-7v.4c.2 0 .9 0 .9.9v9.3c0 .9-.7.8-.9.9v.3h7z"/><path d="m51.1 47.4c.8 0 2.4-.2 3.2-.7l.4-2.5-.4-.1c-.6 1.9-1.9 2.3-3.1 2.3-1.8 0-4.3-1.6-4.3-5.7 0-2.9 1.1-6 3.9-6 3 0 3.3 2.3 3.4 2.7h.4v-3c-1.1-.3-2.6-.5-3.5-.5-4 0-5.8 2.8-5.8 6.9 0 3.7 2 6.6 5.8 6.6z"/><path d="m134.3 37.6h-.3c0-.2 0-.9-.9-.9h-2v9.5c0 .9.7.8.9.9v.3h-3.3v-.4c.2 0 .9 0 .9-.9v-9.5h-2c-.9 0-.8.7-.9.9h-.3v-1.9h7.9z"/><path d="m140.6 43.4 1 2.7c.3.9-.4.8-.6.9v.3h3.3v-.3c-.2 0-.9-.1-1.3-1.4l-3.6-10h-1l-3.6 10c-.5 1.2-1 1.3-1.2 1.3v.3h2.8v-.2c-.2 0-.9 0-.6-.9l1-2.7zm-1.9-5.4 1.6 4.5h-3.3z"/><path d="m12.7 35.7v.3c.2 0 .9 0 .9.9v7.8l-6-9h-2v.3c.2 0 .9 0 .9.9v9.3c.1.8-.6.8-.8.8v.3h2.9v-.3c-.2 0-.9 0-.9-.9v-7.7l6 8.9h1v-10.4c0-.9.7-.8.9-.9v-.3z"/><path d="m24.7 37.6h-.3c0-.2 0-.9-.9-.9h-2v9.5c0 .9.7.8.9.9v.3h-3.3v-.4c.2 0 .9 0 .9-.9v-9.5h-2c-.9 0-.8.7-.9.9h-.3v-1.9h7.9z"/><path d="m74.1 35.7v.3c.2 0 .9 0 .9.9v7.8l-6-9h-2v.3c.2 0 .9 0 .9.9v9.3c0 .9-.7.8-.9.9v.3h3v-.4c-.2 0-.9 0-.9-.9v-7.7l6 8.9h1v-10.4c0-.9.7-.8.9-.9v-.3z"/><path d="m86.1 37.6h-.3c0-.2 0-.9-.9-.9h-2v9.5c0 .9.7.8.9.9v.3h-3.3v-.4c.2 0 .9 0 .9-.9v-9.5h-2c-.9 0-.8.7-.9.9h-.3v-1.9h7.9z"/><path d="m44 46.5c-1.4-1.3-2.3-2.7-3.6-4.7 0 0 2.1-.8 2.1-3.2 0-1.2-.7-3-3.9-3h-.8-2.4v.4c.2 0 .9 0 .9.9v9.3c0 .9-.7.8-.9.9v.3h3.3v-.4c-.2 0-.9 0-.9-.9v-4h1.1c.5.7 1.9 2.7 2.3 3.3 1.2 1.7 2.2 2 3.4 2 .3 0 .6-.1.7-.1v-.3c-.2.1-.7.1-1.3-.5zm-6.1-5.2h-.2v-4.9h.2c2.2 0 2.9.8 2.9 2.3.1 1.1-.5 2.6-2.9 2.6z"/><path d="m153.9 44.8c.2 0 .4.1.6.2s.4.3.5.5.2.4.2.6-.1.4-.2.6-.3.4-.5.5-.4.2-.6.2-.4-.1-.6-.2-.4-.3-.5-.5-.2-.4-.2-.6.1-.4.2-.6.3-.4.5-.5.4-.2.6-.2zm0 .2c-.3 0-.6.1-.8.3s-.3.5-.3.8.1.6.3.8.5.3.8.3.6-.1.8-.3.3-.5.3-.8-.1-.5-.3-.8c-.2-.2-.5-.3-.8-.3zm-.2 1.8h-.2v-1.4h.5.4c.1 0 .1.1.2.1 0 .1.1.1.1.2s0 .2-.1.3-.2.1-.3.1c.1 0 .1.1.1.1s.1.1.2.2l.2.3h-.3l-.1-.2c-.1-.2-.2-.3-.2-.3-.1 0-.1-.1-.2-.1h-.1v.7zm0-1.2v.4h.3c.1 0 .2 0 .3-.1.1 0 .1-.1.1-.2s0-.1-.1-.2c-.1 0-.1 0-.3 0h-.3z"/></g><path d="m75.7 27c2.1-1.7 9.1-5.2 9.1-13.5s-7.2-11.8-9.1-13.5c-1.9 1.7-9.1 5.2-9.1 13.5s7 11.9 9.1 13.5" fill="#fff"/><path d="m75.7 25c0-.2 0-23 0-23 2.4 1.8 7.4 4.7 7.4 11.7 0 6.6-5.1 9.8-6.9 10.9-.4.2-.5.4-.5.4" fill="url(#a)"/><path d="m75.7 2v23c-.6-.6-7.4-3.7-7.4-11.3-.1-6.9 5-9.9 7.4-11.7z" fill="url(#b)"/><path d="m75.7 26.1c-1.9-1.5-8.3-4.8-8.3-12.5s6.5-11 8.3-12.5v-1c-1.9 1.7-9.1 5.2-9.1 13.5s7.2 11.9 9.1 13.5z" fill="#a28347"/><path d="m75.7 26.1c1.9-1.5 8.3-4.8 8.3-12.5s-6.5-11-8.3-12.5v-1c2.1 1.7 9.1 5.2 9.1 13.5s-7.2 11.9-9.1 13.5z" fill="url(#c)"/><path d="m75.7 2.2c-2.2 1.7-7.3 4.7-7.3 11.3 0 7.4 6.8 10.4 7.3 11s.2-.2.6-.4c1.6-1.1 6.7-4.1 6.7-10.6-.1-6.5-5-9.5-7.3-11.3z" fill="url(#d)"/><path d="m72 7-.2-.4h7.6l-.2.4z" fill="#9e8949"/><path d="m71.8 7.3.2-.3v-.2l-.2-.2z" fill="#8a5b02"/><path d="m72 20.2v-.2l-.2-.2v.6z" fill="#d6be77"/><path d="m79.4 20.4h-7.6l.2-.2h7.2z" fill="url(#e)"/><path d="m71.8 7.3.2-.2s2.4 0 2.4 2.9 0 7 0 7 0 .2 0 .2c0 .7-.2 2.6-2.4 2.8l-.2-.2s2.2.2 2.2-2.9 0-7 0-7 .2-2.6-2.2-2.6z" fill="url(#f)"/><path d="m79.4 7.3-.2-.2s-2.4 0-2.4 2.9 0 7 0 7 0 .2 0 .2c0 .7.2 2.6 2.4 2.8l.2-.2s-2.2.2-2.2-2.9 0-7 0-7 0-2.6 2.2-2.6z" fill="url(#g)"/><path d="m79.4 7.3-.2-.3v-.2l.2-.2z" fill="#d6be77"/><path d="m79.2 20.2v-.2l.2-.2v.6z" fill="#d6be77"/><path d="m72 20.2v-.2c2.1-.2 2.4-1.9 2.4-2.8 0-.2 0-.2 0-.2s0-4 0-7c-.1-3-2.4-3-2.4-3v-.2h7.3v.2s-2.4 0-2.4 2.9 0 7 0 7 0 .2 0 .2c0 .7.2 2.6 2.4 2.8v.2h-7.3z" fill="#fff"/></svg>